<?xml version="1.0" standalone="no"?>
<!DOCTYPE svg PUBLIC "-//W3C//DTD SVG 20010904//EN"
 "http://www.w3.org/TR/2001/REC-SVG-20010904/DTD/svg10.dtd">
<svg version="1.0" xmlns="http://www.w3.org/2000/svg"
 width="500.000000pt" height="500.000000pt" viewBox="0 0 500.000000 500.000000"
 preserveAspectRatio="xMidYMid meet">
<metadata>
Created by potrace 1.14, written by Peter Selinger 2001-2017
</metadata>
<g transform="translate(0.000000,500.000000) scale(0.100000,-0.100000)"
fill="#000000" stroke="none">
<path d="M2288 4525 c-2 -2 -36 -5 -77 -6 -74 -2 -135 -22 -160 -53 -18 -21
21 -46 63 -40 17 3 49 1 71 -4 32 -7 45 -5 65 9 37 27 140 26 175 -1 16 -12
100 -22 129 -14 33 8 34 24 1 24 -14 0 -25 6 -25 13 0 14 -54 37 -86 37 -11 0
-25 5 -32 12 -7 7 -12 9 -12 6 0 -3 -24 0 -54 7 -30 7 -56 11 -58 10z"/>
<path d="M1915 4400 c3 -5 -5 -15 -19 -22 -14 -6 -26 -15 -26 -19 0 -5 -8 -16
-18 -26 -10 -10 -30 -35 -45 -55 -16 -21 -33 -38 -40 -38 -22 -1 -49 -50 -44
-78 8 -42 -4 -84 -25 -90 -17 -4 -19 -10 -13 -36 4 -17 10 -42 13 -55 6 -30
-15 -20 -28 13 -7 17 -9 17 -9 4 -1 -10 -6 -18 -12 -18 -7 0 -9 10 -5 24 3 14
2 27 -3 30 -11 7 -22 -46 -12 -57 5 -5 7 -29 5 -55 -3 -35 -2 -42 5 -27 5 11
10 17 12 13 6 -24 7 -30 8 -53 1 -30 17 -33 26 -4 12 37 21 14 29 -76 l4 -40
-18 23 c-10 12 -23 22 -29 22 -6 0 -11 8 -11 18 -1 23 -21 46 -45 50 -57 10
-95 5 -115 -13 -20 -18 -21 -26 -16 -125 3 -58 8 -114 12 -125 5 -13 4 -16 -4
-11 -8 5 -12 -2 -11 -21 0 -25 1 -26 9 -8 7 17 9 16 9 -9 1 -16 9 -36 19 -45
26 -24 63 -104 51 -112 -20 -12 15 -69 64 -102 17 -12 17 -17 5 -55 -11 -37
-16 -42 -35 -37 -12 3 -52 0 -90 -6 -82 -13 -142 -13 -204 1 -73 18 -295 -3
-394 -36 -44 -15 -81 -30 -83 -35 -2 -5 -10 -9 -17 -9 -19 0 -96 -90 -125
-146 -14 -27 -41 -74 -61 -104 -20 -30 -47 -89 -61 -130 -14 -41 -40 -113 -58
-160 -90 -242 -197 -589 -221 -715 -15 -78 -123 -421 -154 -490 -19 -41 -54
-140 -70 -197 -7 -25 -25 -62 -39 -81 -26 -34 -26 -36 -26 -206 l0 -173 42
-86 c23 -48 51 -101 63 -117 38 -57 79 -110 93 -122 20 -17 2948 -19 2968 -2
8 7 14 31 14 56 0 42 1 45 23 38 61 -19 75 -16 218 45 79 34 169 76 199 93 67
38 271 233 316 304 21 32 50 60 76 75 32 17 53 40 82 91 26 46 44 67 58 67 22
0 133 -55 143 -70 7 -11 146 -7 166 5 7 5 3 15 -12 31 -12 13 -25 21 -30 19
-4 -3 -10 -1 -14 5 -3 5 -23 10 -44 10 -23 0 -44 6 -52 16 -8 10 -21 13 -36 9
-19 -4 -31 2 -54 26 -22 24 -35 30 -53 25 -18 -4 -33 3 -67 34 -24 22 -52 40
-61 40 -9 0 -36 18 -59 41 -24 23 -47 38 -55 35 -8 -3 -35 0 -59 6 -35 9 -48
19 -60 45 -21 44 -11 76 36 117 22 18 39 37 39 42 0 5 14 20 30 33 28 21 39
58 24 74 -15 15 -127 -61 -218 -146 -21 -20 -42 -37 -46 -37 -19 0 -96 214
-109 301 -5 41 -13 155 -16 254 -3 99 -13 232 -22 295 -8 63 -13 138 -10 167
4 39 1 61 -16 95 -11 23 -24 45 -28 48 -3 3 -17 34 -30 70 -42 120 -94 184
-185 229 -79 40 -234 81 -339 91 -55 5 -117 12 -137 16 l-37 6 -16 -58 c-27
-97 -50 -133 -133 -209 -7 -5 -31 -31 -54 -56 -24 -26 -54 -50 -68 -55 -38
-12 -192 -7 -200 7 -6 8 -9 8 -13 -2 -4 -10 -6 -10 -6 -1 -1 6 -11 12 -23 12
-51 0 -98 21 -104 45 -3 14 -10 22 -15 19 -17 -10 -30 6 -20 25 5 9 7 22 3 27
-11 17 -40 24 -45 11 -6 -19 -36 10 -34 34 1 10 5 19 9 19 4 0 8 7 8 15 0 8
-5 15 -11 15 -6 0 -9 8 -7 18 4 13 0 18 -15 18 -30 -1 -45 44 -29 87 6 17 13
50 16 72 5 49 21 90 44 120 10 13 17 37 17 58 -1 28 2 34 14 29 15 -5 15 -4 0
18 -15 24 -49 44 -35 21 4 -6 1 -11 -8 -11 -24 0 -29 19 -12 45 15 23 15 25
-2 25 -10 0 -22 3 -26 8 -4 4 -13 7 -19 7 -7 0 -13 18 -15 40 -2 22 -8 43 -13
46 -9 5 -14 34 -18 101 -1 4 -8 5 -16 2 -9 -4 -15 0 -15 9 0 10 11 15 40 15
38 1 40 -1 40 -31 0 -24 10 -40 42 -69 40 -36 41 -39 24 -51 -21 -15 -6 -34
16 -21 6 4 8 3 5 -2 -3 -6 -1 -16 5 -24 8 -13 9 -13 5 1 -3 9 2 31 11 49 15
31 15 33 -4 46 -64 43 -78 66 -49 78 8 3 14 0 12 -6 -2 -9 24 -13 62 -9 8 1
51 82 51 96 0 3 -7 5 -15 5 -8 0 -15 5 -15 10 0 13 16 13 41 0 23 -13 25 -30
2 -30 -15 0 -15 -1 0 -18 10 -10 17 -26 17 -35 0 -10 8 -15 20 -14 11 1 20 5
20 9 0 4 -9 17 -20 28 -24 24 -19 25 19 5 35 -17 44 -38 30 -68 -13 -29 -91
-79 -103 -67 -17 17 -32 11 -44 -15 -16 -34 -15 -40 2 -26 11 9 19 9 34 0 16
-10 25 -8 51 10 18 13 34 22 36 19 2 -2 -4 -27 -14 -55 -19 -56 -50 -90 -93
-99 -15 -4 -25 -10 -22 -15 3 -5 -2 -21 -10 -36 -9 -16 -30 -71 -47 -123 -28
-87 -30 -99 -20 -148 6 -30 8 -58 5 -63 -2 -5 6 -11 20 -15 13 -3 27 -12 30
-19 3 -10 16 -12 43 -9 34 5 36 4 21 -9 -23 -19 -23 -33 1 -40 13 -3 21 1 24
14 3 13 11 17 21 13 9 -3 16 -1 16 5 0 6 5 11 12 11 9 0 9 -3 1 -11 -12 -12
-7 -39 7 -39 5 0 11 14 15 30 7 30 36 42 50 20 5 -8 11 -7 21 1 25 20 84 20
132 -2 46 -21 68 -16 56 14 -3 9 -16 19 -27 22 -12 4 -38 14 -57 23 -19 8 -53
15 -75 14 -79 -3 -102 24 -40 47 37 13 167 1 206 -19 11 -6 24 -8 29 -5 5 3
18 0 29 -7 28 -17 38 -2 19 30 -21 35 -52 43 -173 46 -93 2 -175 20 -175 38 0
19 42 47 77 53 21 3 58 13 83 21 25 9 53 16 63 16 9 0 17 3 17 9 0 5 11 9 24
9 14 0 34 12 48 29 24 28 25 28 37 8 7 -11 19 -42 27 -69 18 -58 35 -55 29 5
-2 25 1 44 8 49 9 6 9 8 0 8 -7 0 -13 8 -13 18 0 9 -14 31 -30 49 -17 18 -30
37 -30 44 0 30 -15 -7 -20 -49 -5 -45 -6 -47 -35 -44 -16 2 -36 9 -43 15 -10
8 -19 5 -34 -11 -19 -19 -23 -19 -44 -5 -13 8 -24 22 -24 29 0 8 -4 14 -8 14
-5 0 -9 18 -9 39 0 27 4 38 12 35 20 -8 25 35 8 74 -9 21 -17 76 -19 130 -4
92 -19 144 -47 155 -8 3 -17 23 -21 45 -5 33 -15 47 -58 81 -29 22 -59 46 -67
52 -18 16 -121 15 -131 -1 -13 -22 -27 -2 -26 37 1 36 3 39 46 50 42 11 43 11
13 12 -31 1 -32 3 -31 39 1 20 6 40 12 44 7 5 4 8 -6 8 -10 0 -18 5 -18 11 0
6 -7 8 -15 5 -20 -7 -32 23 -14 35 11 7 11 9 -3 9 -13 0 -18 -8 -18 -30 0 -25
-4 -30 -24 -30 -18 0 -25 7 -30 31 -3 17 -3 36 1 42 3 5 1 7 -5 3 -20 -12 -20
9 -1 49 13 27 17 52 13 76 -3 22 -1 40 5 44 14 8 14 35 0 35 -5 0 -7 -4 -4
-10z m45 -340 c0 -5 -2 -10 -4 -10 -3 0 -8 5 -11 10 -3 6 -1 10 4 10 6 0 11
-4 11 -10z m40 -25 c-7 -8 -16 -15 -21 -15 -5 0 -9 7 -9 15 0 9 9 15 21 15 18
0 19 -2 9 -15z m-40 -15 c0 -5 -5 -10 -11 -10 -5 0 -7 5 -4 10 3 6 8 10 11 10
2 0 4 -4 4 -10z m176 -201 c10 -17 -8 -28 -54 -30 -25 -2 -47 -9 -51 -18 -5
-8 -15 -11 -26 -7 -10 3 -24 1 -31 -5 -11 -9 -15 -8 -20 4 -8 22 4 39 24 35
10 -2 26 4 36 14 22 20 110 25 122 7z m-166 -133 c0 -8 -5 -18 -11 -22 -14 -8
-33 11 -25 25 10 16 36 13 36 -3z m-394 -88 c-11 -79 -22 -90 -31 -29 -5 35
-3 56 5 66 24 29 33 16 26 -37z m309 -58 c3 -5 1 -10 -4 -10 -6 0 -11 5 -11
10 0 6 2 10 4 10 3 0 8 -4 11 -10z m-241 -196 c10 -37 -2 -43 -24 -14 -25 32
-25 40 -1 40 12 0 21 -9 25 -26z m-100 -1644 c51 -32 137 -123 192 -205 32
-49 73 -95 104 -118 46 -35 95 -97 142 -185 29 -52 79 -213 73 -232 -9 -29 5
-69 26 -75 11 -4 22 -19 26 -36 3 -16 9 -26 14 -23 5 3 6 16 3 29 -7 29 7 38
40 26 31 -12 49 -45 41 -73 -6 -18 -13 -20 -51 -15 -24 2 -44 1 -44 -3 0 -15
-29 -19 -42 -7 -17 17 -51 30 -43 16 4 -6 -3 -7 -21 -3 -38 10 -75 30 -68 37
3 3 -3 3 -15 0 -12 -3 -21 -1 -21 6 0 6 4 11 8 11 4 0 9 13 10 29 2 22 -6 34
-33 56 l-36 27 -20 -26 c-15 -19 -30 -26 -56 -26 -28 0 -34 3 -29 16 7 18 -7
47 -35 75 -32 32 -136 99 -153 99 -9 0 -19 7 -22 15 -4 8 -10 13 -14 10 -14
-8 -22 13 -25 61 -1 25 -9 50 -17 57 -21 16 -30 58 -16 74 6 7 8 22 5 33 -3
11 -1 20 4 20 14 0 10 22 -8 42 -15 17 -15 18 4 18 10 0 28 -7 39 -15 40 -31
47 -14 9 25 -21 22 -45 40 -52 40 -17 0 -16 11 2 36 17 25 11 34 -21 34 -21 0
-22 3 -14 26 16 42 13 47 -22 39 -89 -20 -148 -6 -148 34 0 23 28 61 54 71 34
14 197 0 230 -20z m2376 -40 c0 -5 -5 -10 -11 -10 -5 0 -7 5 -4 10 3 6 8 10
11 10 2 0 4 -4 4 -10z"/>
<path d="M2749 4323 c6 -13 15 -23 19 -23 5 0 22 -20 40 -45 17 -25 36 -45 42
-45 15 0 12 16 -5 34 -8 8 -15 17 -15 19 0 3 -13 19 -30 37 -16 18 -30 29 -30
25 0 -4 -7 -1 -17 6 -15 13 -15 12 -4 -8z"/>
<path d="M1700 4140 c0 -5 5 -10 10 -10 6 0 10 5 10 10 0 6 -4 10 -10 10 -5 0
-10 -4 -10 -10z"/>
<path d="M2716 3915 c-3 -8 -14 -15 -25 -15 -71 0 -171 -46 -171 -78 0 -5 54
-12 121 -15 95 -4 124 -9 140 -23 26 -23 31 -15 23 36 -4 26 -19 56 -37 76
-32 38 -42 41 -51 19z"/>
<path d="M2525 3743 c-63 -19 -85 -38 -85 -75 0 -28 2 -29 30 -23 23 5 30 3
30 -8 0 -12 19 -27 35 -27 1 0 6 12 10 28 l8 27 6 -24 c8 -30 55 -49 76 -31 8
7 15 25 15 41 0 36 14 37 36 4 18 -28 44 -33 44 -10 0 8 5 15 10 15 14 0 12
32 -3 51 -36 47 -119 60 -212 32z"/>
<path d="M2107 3463 c-4 -3 -7 -11 -7 -17 0 -6 5 -5 12 2 6 6 9 14 7 17 -3 3
-9 2 -12 -2z"/>
<path d="M2678 3293 c7 -3 16 -2 19 1 4 3 -2 6 -13 5 -11 0 -14 -3 -6 -6z"/>
<path d="M2170 2860 c0 -5 9 -10 20 -10 11 0 20 5 20 10 0 6 -9 10 -20 10 -11
0 -20 -4 -20 -10z"/>
<path d="M4586 1847 c-4 -9 -8 -24 -11 -32 -2 -8 0 -15 5 -15 6 0 10 -8 10
-17 0 -37 17 -47 71 -44 58 2 107 19 128 44 7 9 18 14 24 10 6 -3 7 -1 3 5 -4
7 -13 12 -21 12 -7 0 -15 5 -17 11 -3 8 -10 8 -26 -2 -19 -12 -24 -12 -31 0
-5 8 -14 10 -21 6 -8 -5 -18 -1 -27 10 -7 11 -13 13 -13 7 0 -15 -51 -5 -62
12 -4 6 -9 4 -12 -7z"/>
<path d="M4480 1733 c-27 -8 -60 -26 -60 -33 0 -13 34 -5 59 12 26 18 26 28 1
21z"/>
<path d="M4630 1396 c0 -17 21 -36 41 -36 9 0 29 -10 44 -22 22 -17 47 -23
119 -29 50 -3 93 -5 95 -3 10 9 -24 34 -45 34 -12 0 -26 5 -30 11 -3 6 -16 8
-29 5 -14 -4 -28 0 -35 9 -14 17 -56 20 -65 5 -3 -5 -25 1 -50 15 -29 15 -45
19 -45 11z"/>
<path d="M4516 1295 c-11 -8 -18 -17 -15 -19 50 -45 216 -60 189 -16 -6 9 -23
14 -51 13 -28 -2 -51 5 -70 17 -32 23 -29 23 -53 5z"/>
<path d="M4770 1250 c0 -5 12 -10 28 -9 24 0 25 1 7 9 -27 12 -35 12 -35 0z"/>
<path d="M4363 1243 c-40 -16 20 -73 77 -73 56 0 99 -19 116 -51 17 -34 30
-35 109 -6 62 23 75 40 52 71 -11 16 -29 18 -133 20 -104 1 -123 4 -155 24
-37 22 -45 24 -66 15z"/>
<path d="M4835 1230 c-3 -5 -1 -20 6 -32 16 -30 14 -29 33 -22 21 8 20 27 -2
47 -21 20 -28 21 -37 7z"/>
</g>
</svg>
